<?xml version="1.0" encoding="utf-8"?>
<!-- Generator: Adobe Illustrator 27.5.0, SVG Export Plug-In . SVG Version: 6.00 Build 0)  -->
<svg version="1.1" id="Layer_1" width="80" height="70" xmlns="http://www.w3.org/2000/svg" xmlns:xlink="http://www.w3.org/1999/xlink" x="0px" y="0px"
	 viewBox="0 0 200 200" style="enable-background:new 0 0 200 200;" xml:space="preserve">
<style type="text/css">
	.st0{fill:#2D2F7A;}
	.st1{fill:#77BF41;}
</style>
<g id="Ukq5CS.tif">
	<g>
		<path class="st0" d="M63.1,177.5c-16.2,0-32.5,0-48.7,0c0.1,0,0.3-0.1,0.3-0.1c-0.5-0.2-1.1-0.4-1.6-0.7c-1.2-0.7-1.4-1.9-1.4-3.1
			c0-8,0-16,0-24c0-0.4-0.1-0.6-0.5-0.7c-2.5-1.1-5.1-2.2-7.6-3.4c-1.8-0.8-2.5-2.3-2-4.1c0.3-1.3,0.7-2.6,1-3.8
			c1.4-4.9,2.8-9.8,4.2-14.7c1.6-5.4,3.1-10.7,4.7-16.1c0.2-0.5,0.4-1,0.7-1.5c0.8-1.2,2-1.5,3.4-1.5c8.8,0,17.6,0,26.5,0
			c6.6,0,13.3,0,19.9,0c1.3,0,2.3,0.3,3.2,1.3c1.9,2.1,3.9,4.2,5.8,6.3c0.3,0.3,0.5,0.6,0.8,0.9c0-23.1,0-46.1,0-69.1c-1,0-2,0-3,0
			c-0.5,0-1,0-1.5-0.1c-1.6-0.4-2.6-1.7-2.6-3.6c0-4.5,0-8.9,0-13.4c0-0.6,0.1-1.3,0.4-1.8c0.7-1.5,2-2,3.6-2c30.3,0,60.7,0,91,0
			c11.6,0,23.1,0,34.7,0c2.4,0,3.8,1.4,3.8,3.8c0,4.4,0,8.9,0,13.3c0,1.1-0.4,2.1-1.2,2.9c-0.7,0.6-1.6,0.9-2.5,0.9
			c-1.1,0-2.1,0-3.3,0c0,0.8,0,1.5,0,2.2c0,25.8,0,51.6,0,77.4c0,1.8,0,3.5,0,5.3c0,2-1.5,3.5-3.5,3.5c-1,0-2,0-3,0
			c-0.5,0-0.6,0.1-0.6,0.6c-0.2,3-0.9,5.8-2.5,8.4c-0.9,1.4-2,2.7-3.3,3.9c0.3,0.2,0.6,0.3,0.8,0.4c7.1,3.1,12.5,8.2,15.9,15.2
			c2.1,4.2,3.2,8.7,3.2,13.5c0,2.2-1.7,3.7-3.6,3.5c-0.3,0-0.6,0-0.9,0c-21,0-42.1,0-63.1,0c-12.5,0-25,0-37.4,0
			c-0.5,0-1.1,0-1.6-0.2c-1.3-0.5-2.2-1.5-2.2-3.5c0.1-4.4,1-8.5,2.8-12.5c3.4-7.4,8.8-12.7,16.3-16c0.2-0.1,0.5-0.2,0.8-0.3
			c-0.3-0.3-0.5-0.5-0.7-0.8c-3.2-3.2-4.9-7.1-5.1-11.7c0-0.5-0.2-0.5-0.6-0.5c-4.9,0-9.8,0-14.7,0c-0.3,0-0.7,0.1-0.9,0.3
			c-3.7,3.4-7.5,6.8-11.2,10.2c-0.4,0.3-0.8,0.7-1.3,0.9c-1.3,0.6-2.5,0.3-3.6-0.6c-1.7-1.4-3.3-2.9-5-4.4c-0.1-0.1-0.2-0.2-0.4-0.4
			c0,0.3,0,0.5,0,0.7c0,11.7,0,23.3,0,35c0,0.6,0,1.2-0.3,1.7c-0.5,1.3-1.5,2-2.9,2.1C63,177.5,63.1,177.5,63.1,177.5z M78.8,116.5
			c0,0,0.1,0.1,0.1,0.1c0.2-0.2,0.4-0.5,0.6-0.7c3.9-3.6,7.8-7.1,11.7-10.7c2.8-2.5,6-3.2,9.4-1.8c3.2,1.3,5,3.8,5.3,7.3
			c0.2,2.4-0.4,4.7-2.2,6.5c-2.3,2.2-4.7,4.4-7,6.5c-0.5,0.4-0.9,0.9-1.5,1.4c0.3,0,0.4,0.1,0.5,0.1c3,0,6.1,0,9.1,0
			c0.3,0,0.5-0.1,0.6-0.4c1.1-2.3,2.6-4.3,4.5-6c5.8-5.1,14.5-5.6,21.1-1.2c2.7,1.8,4.6,4.3,6,7.2c0.1,0.3,0.3,0.4,0.6,0.4
			c4.2,0,8.5,0,12.7,0c0.4,0,0.5-0.1,0.7-0.4c3.2-6.8,10.2-11.2,18.4-9.9c5.8,0.9,10.2,4.1,12.9,9.4c0.4,0.8,0.8,1,1.6,0.9
			c0.5,0,0.6-0.2,0.6-0.7c0-26.6,0-53.1,0-79.7c0-0.4,0-0.7,0-1.1c0-0.3-0.1-0.4-0.4-0.4c-0.4,0-0.8,0-1.3,0c-33.6,0-67.2,0-100.8,0
			c-1.1,0-2.2,0-3.4,0C78.8,67.7,78.8,92.1,78.8,116.5z M73.6,135.5c0.2-0.1,0.3-0.2,0.4-0.3c4.3-3.9,8.6-7.8,12.9-11.7
			c3.5-3.2,7-6.3,10.4-9.5c0.6-0.5,1.2-1,1.7-1.5c0.8-0.9,0.6-2.1-0.4-2.8c-0.9-0.5-1.7-0.4-2.6,0.4c-1.5,1.4-3,2.8-4.6,4.2
			c-4,3.6-8,7.3-11.9,10.9c-1.7,1.6-3.6,1.5-5.2-0.2c-1.2-1.2-2.3-2.5-3.5-3.7c-3.1-3.4-6.2-6.8-9.3-10.1c-0.2-0.2-0.5-0.4-0.7-0.4
			c-3,0-6.1,0-9.1,0c-11.2,0-22.4,0-33.6,0c-0.4,0-0.6,0.1-0.7,0.5c-2.3,8.2-4.7,16.4-7.1,24.6c-0.5,1.6-0.9,3.2-1.4,4.8
			c0.2,0.1,0.3,0.2,0.4,0.2c7.1,3.1,14.2,6.3,21.4,9.4c1,0.4,1.9,0.9,2.9,1.2c1.1,0.4,2.3-0.4,2.6-1.5c0.3-1.1-0.1-2-1.2-2.7
			c-4.6-2.9-9.3-5.9-13.9-8.8c-1.9-1.2-2.4-2.8-1.4-4.8c0.6-1.3,1.2-2.6,1.9-3.9c1-2.1,2.1-4.1,3.1-6.2c0.8-1.6,2.5-2.3,4.1-1.8
			c1.9,0.7,2.9,2.8,2,4.7c-1.2,2.4-2.4,4.8-3.6,7.2c-0.2,0.4-0.2,0.6,0.2,0.8c1,0.6,2,1.3,3.1,1.9c2.9,1.8,5.8,3.6,8.7,5.5
			c2.5,1.7,3.9,4.1,4,7.1c0.3,7.6-7.5,10.8-12.4,8.7c-3.5-1.5-7-3.2-10.5-4.7c-0.5-0.2-1.1-0.5-1.6-0.7c0,6.2,0,12.4,0,18.5
			c13.6,0,27.1,0,40.7,0c0-0.3,0-0.5,0-0.7c0-13,0-26,0-39.1c0-0.2,0-0.4,0-0.6c0-1.5,1.1-2.8,2.5-3.2c1.3-0.3,2.4,0.1,3.4,0.9
			c2.2,2,4.4,3.9,6.7,5.8C72.4,134.5,73,135,73.6,135.5z M191.6,29.2c-0.9,0-1.7,0-2.6,0c-37.6,0-75.1,0-112.7,0c-1.4,0-2.8,0-4.2,0
			c-0.3,0-0.5,0-0.5,0.4c0,2.2,0,4.4,0,6.6c0,0.4,0.1,0.4,0.5,0.4c0.7,0,1.3,0,2,0c17.6,0,35.1,0,52.7,0c21.5,0,43.1,0,64.6,0
			c0.1,0,0.1,0,0.2,0C191.6,34.1,191.6,31.6,191.6,29.2z M142.5,170.7c16.3,0,32.6,0,48.9,0c-1.1-10.3-10.6-21.5-24.6-21.3
			C152.8,149.5,143.4,160.8,142.5,170.7z M96.5,170.7c0.3,0,0.4,0,0.6,0c2.5,0,4.9,0,7.4,0c10.1,0,20.2,0,30.3,0
			c0.4,0,0.6,0,0.7-0.5c0.6-4.2,1.9-8.2,4.1-11.8c0.2-0.3,0.1-0.5-0.1-0.7c-6.2-6.6-13.8-9.4-22.7-7.8c-9.3,1.7-15.7,7.3-19,16.2
			C97.2,167.5,96.9,169,96.5,170.7z M121,142.6c4.8,0.1,10.8-3.4,10.8-11.3c0-5.4-5-10.2-10.7-10.1c-5.5,0-10.6,4-10.7,10.7
			C110.2,137.8,115,142.5,121,142.6z M156.2,131.9c0,5.9,4.7,10.7,10.6,10.7c6,0,10.8-4.7,10.8-10.6c0-6-4.8-10.8-10.7-10.8
			C161,121.2,156.2,125.9,156.2,131.9z M132.8,144.8c4.4,1.7,8.1,4.3,11.4,7.6c1.5-1.7,3.3-3.1,5.1-4.4c1.8-1.3,3.8-2.4,6-3.2
			c-0.2-0.2-0.3-0.4-0.4-0.5c-3.3-3.3-5-7.4-5.2-12c0-0.4-0.2-0.4-0.5-0.4c-3.1,0-6.1,0-9.2-0.1c-0.4,0-0.8,0-1.2,0
			C138.6,137,136.6,141.3,132.8,144.8z"/>
		<path class="st0" d="M94.2,177.5c0.3,0,0.5-0.1,0.8-0.1c16.8,0,33.6,0,50.5,0c16,0,32.1,0,48.1,0c0.4,0,0.7,0.1,1.1,0.1
			C161.2,177.5,127.7,177.5,94.2,177.5z"/>
		<path class="st0" d="M18.8,82.4c0.3-12,9.9-20.9,21.3-20.8c11.2,0.1,20.7,9.3,20.7,21c0,11.3-8.9,20.9-21,20.9
			C28.7,103.6,19,94.7,18.8,82.4z M39.9,96.8c7.6,0,14-6,14.1-14.1c0.1-6.7-5.4-14.2-14-14.4c-8-0.1-14.4,6.3-14.5,14.1
			C25.5,90.2,31.8,96.9,39.9,96.8z"/>
		<path class="st1" d="M102.5,78.3c0.5-17.3,15-29.3,30.2-28.6c16,0.7,28.7,13.7,28.1,30.2c-0.6,16.3-13.8,28.5-29.8,28.1
			C115,107.6,102.3,94.5,102.5,78.3z M131.6,101.2c12.7,0,22.1-9.8,22.5-21.7c0.4-12.5-9.4-22.8-21.7-23.1
			c-12.4-0.4-23,9.4-23.1,22.4C109.2,91.3,119.4,101.3,131.6,101.2z"/>
		<path class="st1" d="M128.3,75.3c0-1.3,0-2.5,0-3.8c0-0.9,0-1.8,0.1-2.8c0.1-1.7,1.6-3.1,3.3-3.1c1.8,0,3.3,1.4,3.3,3.1
			c0.1,2,0,4.1,0.1,6.1c0,0.1,0,0.2,0,0.4c0.3,0,0.6,0,0.8,0c1.8,0,3.5,0,5.3,0c2.3,0,3.9,1.9,3.5,4.2c-0.3,1.4-1.8,2.6-3.3,2.6
			c-1.9,0-3.8,0-5.7,0c-0.5,0-0.6,0.2-0.6,0.6c0,2,0.1,4,0,6c-0.1,1.7-1.6,3.1-3.3,3.1c-1.7,0-3.3-1.4-3.4-3.1c-0.1-2-0.1-4,0-6
			c0-0.4-0.1-0.6-0.6-0.6c-1.8,0-3.6,0-5.5,0c-2.1,0-3.6-1.4-3.6-3.5c0-1.8,1.5-3.3,3.5-3.3c1.9,0,3.8,0,5.7,0
			C128,75.4,128.1,75.3,128.3,75.3z"/>
	</g>
</g>
</svg>
