<?xml version="1.0" encoding="utf-8"?>
<!-- Generator: Adobe Illustrator 27.5.0, SVG Export Plug-In . SVG Version: 6.00 Build 0)  -->
<svg version="1.1" id="Layer_1" width="80" height="70" xmlns="http://www.w3.org/2000/svg" xmlns:xlink="http://www.w3.org/1999/xlink" x="0px" y="0px"
	 viewBox="0 0 200 200" style="enable-background:new 0 0 200 200;" xml:space="preserve">
<style type="text/css">
	.st0{fill:#2D2F7A;}
	.st1{fill:#77BF41;}
</style>
<g id="_x37_Ss1X3.tif">
	<g>
		<path class="st0" d="M170.9,148.3c0-0.2-0.1-0.4-0.1-0.6c0,0,0,0,0,0c-0.1,0.9-0.1,1.9-0.2,2.8c-0.7,6.2-2.4,12.1-5.2,17.7
			c-2,3.9-4.4,7.6-7.3,10.9c-1.8,2-3.7,3.9-5.8,5.7c-6.7,5.7-14.4,9.5-23,11.3c-3.5,0.8-7.1,1.2-10.8,1.2c-8.1,0-16.3,0-24.4,0
			c-8.7,0-16.8-2.1-24.5-6.1c-5-2.6-9.5-5.9-13.4-10c-4-4.1-7.2-8.8-9.7-13.9c-2.1-4.4-3.5-9.1-4.4-13.9c-0.6-3.2-0.8-6.5-0.8-9.8
			c0-10.3,0-20.6,0-30.9c0-2.4,0.4-4.8,1.7-6.9c1.9-3.1,4.8-4.9,8.3-5.5c4.9-0.9,9.3,0.5,13.4,3.1c0.3,0.2,0.5,0.4,0.9,0.6
			c0-0.4,0-0.7,0-1.1c-0.1-12.5-0.1-25-0.1-37.5c0-2.7,0.2-5.4,0.5-8.2c0.2-2.3,0.7-4.5,2-6.4c2.8-4.1,6.7-6.9,11.7-7.5
			c5.2-0.7,9.8,0.8,13.6,4.6c3.2,3.2,4.7,7.2,4.7,11.8c0,5.8,0,11.7,0,17.5c0,0.2,0,0.4,0,0.6c4.5-2.5,9-3.1,13.8-1.3
			c4.7,1.8,7.9,5.1,9.7,9.8c5.1-3.2,10.4-3.6,15.8-1.2c5.4,2.5,8.3,7,9.3,12.8c5.1-2.7,10.3-3,15.5-0.3c5.2,2.6,8,7,8.7,12.7
			c0-0.1,0.1-0.2,0.1-0.3C170.9,122.9,170.9,135.6,170.9,148.3z M73.6,101.6c0,14,0,28,0,42.1c0,0.5,0,0.9-0.1,1.4
			c-0.2,1.8-1.4,3.1-3.1,3.5c-1.6,0.4-3.3-0.4-4.3-1.8c-0.6-0.9-0.7-1.9-0.7-3c0-7.2,0-14.4-0.1-21.6c0-2.1-0.2-4.2-0.8-6.1
			c-1.2-3.9-4-6.2-7.9-7.4c-1-0.3-2.2-0.5-3.3-0.5c-2.6,0-4.2,1.7-4.2,4.4c0.1,10.8,0,21.7,0,32.5c0,2.8,0.2,5.5,0.8,8.2
			c1.7,8.6,5.6,16.2,11.8,22.5c3.9,4.1,8.4,7.2,13.6,9.6c5.8,2.7,12,3.9,18.4,3.9c8,0,16,0,24,0c3.1,0,6.3-0.3,9.3-0.9
			c4.6-0.9,9-2.6,13.1-4.9c6.2-3.6,11.4-8.3,15.3-14.3c2.8-4.4,4.9-9.1,6.1-14.1c0.9-3.8,1.2-7.6,1.2-11.4c0-10.4,0-20.9,0-31.3
			c0-0.6,0-1.2-0.2-1.8c-1.1-5.3-6.8-7.9-11.5-5.6c-2.1,1-3.7,2.6-4.3,5c-0.2,1-0.3,2-0.3,3c0,2.3,0,4.7,0,7c0,0.3,0,0.7-0.1,1
			c-0.3,2-1.9,3.5-3.9,3.5c-2,0-3.8-1.5-4.1-3.5c-0.1-0.6-0.1-1.2-0.1-1.8c0-6.2,0-12.4,0-18.6c0-0.6,0-1.2-0.1-1.8
			c-0.6-3.9-4.2-7-8.4-6.8c-4.2,0.2-7.7,3.8-7.7,8c0,6.4,0,12.9,0,19.3c0,0.5,0,1-0.1,1.6c-0.2,1.5-0.9,2.6-2.3,3.2
			c-1.4,0.6-2.8,0.5-4-0.5c-1.3-1-1.7-2.3-1.7-3.8c0-9.2,0-18.5,0-27.7c0-4.8-4-8-7.7-8.2c-4.7-0.2-8.6,3.7-8.6,8.1
			c0.1,9.1,0,18.3,0,27.4c0,0.5,0,0.9-0.1,1.4c-0.2,1.8-1.3,3.1-3,3.5c-1.5,0.4-3.2-0.3-4.2-1.6c-0.7-0.9-0.8-2-0.8-3.1
			c0-19.5,0-39,0-58.5c0-0.7,0-1.5-0.1-2.2c-0.5-4.3-4-7.1-7.3-7.4c-5.2-0.5-8.8,3.5-8.8,7.9C73.6,73.4,73.6,87.5,73.6,101.6z"/>
		<path class="st1" d="M86.5,2.7c-0.7,0.1-1.3,0.1-2,0.2c0,0,0,0.1,0,0.1c0.7,0,1.3,0,2,0.1c1.8,0.2,3.6,0.4,5.4,0.7
			c4.7,0.9,9.1,2.4,13.4,4.5c4.2,2.1,8.1,4.7,11.6,7.9c3.4,3.1,6.4,6.6,8.9,10.4c3.6,5.5,6.1,11.5,7.5,18c0.9,4,1.3,8.1,1.2,12.3
			c-0.1,3.9-0.7,7.8-1.7,11.5c-0.5,1.9-2,3.1-3.7,3.2c-2.6,0.1-4.7-2.3-4.2-4.8c0.3-1.8,0.8-3.5,1-5.3c1.3-9.7-0.3-18.8-5-27.4
			c-2.9-5.3-6.7-9.8-11.4-13.6c-5.2-4.1-11-7-17.5-8.5c-4.2-1-8.4-1.3-12.7-1.1c-10.1,0.6-19,4.2-26.7,10.8
			c-5.3,4.6-9.3,10.1-12,16.6c-1.5,3.7-2.6,7.6-3,11.6c-0.4,3.2-0.5,6.4-0.1,9.7c0.3,2.4,0.7,4.7,1.2,7.1c0.4,2.2-0.8,4.4-3,4.9
			c-2.2,0.5-4.4-0.8-4.9-3c-1.3-5.2-1.8-10.5-1.5-15.9c0.1-3.2,0.6-6.4,1.4-9.6c1-4,2.4-7.8,4.3-11.4c3.3-6.5,7.8-12.1,13.4-16.8
			c4.4-3.7,9.3-6.5,14.7-8.6c4.3-1.6,8.7-2.7,13.2-3.2c1-0.1,2.1-0.1,3.2-0.2c-0.5-0.1-0.9-0.1-1.4-0.2C80.8,2.7,83.6,2.7,86.5,2.7z
			"/>
		<path class="st1" d="M82.3,23c3.1,0,6.6,0.7,10,1.8c3.4,1.1,6.4,2.9,9.2,5c5.2,4,8.8,9.2,10.9,15.4c1.5,4.4,1.9,9,1.5,13.6
			c-0.2,1.9-1,3.3-2.9,4c-2.7,0.9-5.5-1.5-5.2-4.3c0.1-1.7,0.2-3.4,0.2-5.1c-0.1-3-0.9-5.7-2.2-8.4c-3.1-6.7-8.2-11.1-15.3-13.2
			c-5.7-1.7-11.3-1.3-16.8,1.2c-6.5,2.9-10.8,7.9-13.1,14.6c-1.2,3.6-1.5,7.2-1,10.9c0.4,3.1-2.3,5.4-5.3,4.6
			c-1.1-0.3-1.9-1.1-2.3-2.2c-0.5-1.3-0.7-2.8-0.7-4.2c-0.1-2.8,0.1-5.7,0.8-8.4C53,36.9,60,29,71.2,24.9C74.6,23.6,78.2,23,82.3,23
			z"/>
	</g>
</g>
</svg>
