<?xml version="1.0" encoding="utf-8"?>
<!-- Generator: Adobe Illustrator 27.5.0, SVG Export Plug-In . SVG Version: 6.00 Build 0)  -->
<svg version="1.1" id="Layer_1" width="80" height="70" xmlns="http://www.w3.org/2000/svg" xmlns:xlink="http://www.w3.org/1999/xlink" x="0px" y="0px"
	 viewBox="0 0 200 200" style="enable-background:new 0 0 200 200;" xml:space="preserve">
<style type="text/css">
	.st0{fill:#2D2F7A;}
	.st1{fill:#2D2F7A;stroke:#2D2F7A;stroke-width:3;stroke-miterlimit:10;}
	.st2{fill:#77BF41;stroke:#77BF41;stroke-width:2;stroke-miterlimit:10;}
</style>
<g>
	<g id="yJjD9G.tif">
		<g>
			<path class="st0" d="M1.5,95.9c1.2-2,2.9-2.8,5.3-2.7c6.7,0.1,13.3,0.1,20,0c5.9-0.1,10.1,2.2,12.6,7.7c6.6,0,13.2,0,19.8,0
				c3.6,0,7.2-0.2,10.7,0.4c3.5,0.6,7,1.7,10.1,3.3c6.5,3.3,12.7,7.1,19.1,10.6c1.2,0.6,2.6,1,4,1c7.2,0.1,14.4,0.4,21.5,0
				c10.5-0.6,18.6,6.9,17.6,18.1c2.2-0.7,4.2-1.4,6.3-2.1c9.7-3.3,19.5-6.7,29.2-10.1c3.2-1.1,6.3-1.5,9.6-0.7
				c6.2,1.6,10.4,6.5,11,13c0.6,6.2-2.8,12.2-8.7,14.8c-10.3,4.6-20.7,9.1-31.1,13.7c-13.8,6.1-27.5,12.2-41.3,18.2
				c-15.9,6.9-31.3,5.7-46.2-3c-6.3-3.7-12.5-7.5-18.8-11.3c-3.7-2.3-7.9-3.3-12.1-3.9c-0.4-0.1-1.2,0.4-1.4,0.8
				c-2.5,4.6-6.4,6.5-11.5,6.5c-6.9-0.1-13.8-0.1-20.8,0c-2.3,0-4-0.7-5-2.7C1.5,143.6,1.5,119.7,1.5,95.9z M40.1,155
				c0.7,0.1,1.3,0.3,1.9,0.4c5.9,0.9,11.4,2.9,16.4,6.1c5.5,3.5,11.1,6.7,16.6,10c12.6,7.5,25.7,8.5,39.2,2.7
				c19-8.3,38-16.7,56.9-25c5.2-2.3,10.3-4.5,15.4-6.8c3.1-1.4,4.7-4.7,4-7.9c-0.8-3.4-3.1-5.5-6.6-5.5c-1.4,0-2.8,0.4-4.1,0.8
				c-14.6,5-29.2,9.9-43.7,15.1c-4.9,1.8-9.7,2.5-14.8,2.4c-5.4-0.2-10.9,0-16.3,0c-5.6,0-11.2,0-16.7,0c-2.5,0-4.2-1.5-4.3-3.7
				c-0.1-2.2,1.7-3.9,4.3-4c0.5,0,1,0,1.5,0c12.2,0,24.5,0,36.7,0c3.7,0,6.6-2,7.7-5.2c1.7-5.1-2-10.1-7.5-10.1
				c-7.8-0.1-15.6-0.1-23.5,0c-2.9,0-5.5-0.7-8-2.1c-6.1-3.5-12.3-6.9-18.4-10.4c-3.5-2-7.2-2.9-11.2-2.9c-7.9,0-15.8,0-23.6,0
				c-0.6,0-1.2,0.1-1.9,0.1C40.1,124.2,40.1,139.6,40.1,155z M9.4,100.9c0,20.6,0,41,0,61.5c6.5,0,12.9,0,19.3,0
				c2.1,0,3.6-1.7,3.6-4c0-17.8,0-35.6,0-53.4c0-2.4-1.5-4-3.9-4.1C22.1,100.9,15.8,100.9,9.4,100.9z"/>
			<path class="st0" d="M24.6,112.5c0,2.1-1.8,3.9-3.9,3.8c-2.1,0-3.7-1.7-3.8-3.8c0-2.1,1.8-3.9,3.9-3.9
				C22.9,108.7,24.6,110.4,24.6,112.5z"/>
		</g>
	</g>
	<g id="Y78zso.tif">
		<g>
			<path class="st1" d="M157.9,14.4c2,0.5,4,0.7,5.9,1.4c14.6,5.2,20.1,23.3,11,35.8c-0.9,1.3-2.1,1.6-3.1,0.8c-1-0.8-1-1.9-0.1-3.2
				c6-8.4,4.6-19.5-3.1-26.2c-7.4-6.4-18.6-6.1-25.7,0.6c-2.1,2-4.1,4.1-6.2,6.2c-1.3,1.3-2.3,1.3-3.6,0c-2-2-3.9-4-5.9-5.9
				c-10.8-10.3-28.5-5.4-32.2,9.1c-1.7,6.9-0.2,13.1,4.8,18.2c8.5,8.7,17.2,17.3,25.8,25.9c1.3,1.3,1.5,2.4,0.6,3.4
				c-0.9,1-2.1,0.8-3.4-0.5c-8.7-8.7-17.5-17.3-26-26.2c-6.4-6.7-8.1-14.8-5.2-23.5c2.9-8.7,9.1-13.9,18.1-15.7
				c0.6-0.1,1.2-0.2,1.8-0.4c1.4,0,2.8,0,4.2,0c0.1,0,0.3,0.1,0.4,0.1c5.8,0.6,10.7,3.2,14.8,7.4c1.3,1.3,2.6,2.6,3.9,3.9
				c1.5-1.5,2.9-2.9,4.3-4.4c2.8-2.8,6-4.9,9.8-6c1.6-0.5,3.2-0.7,4.9-1.1C155.1,14.4,156.5,14.4,157.9,14.4z"/>
			<path class="st2" d="M187.3,87.4c-0.3,1.5-0.5,3-0.9,4.4c-3.2,12.1-14.1,20.1-26.7,19.6c-12.6-0.5-23.4-10.5-24.9-23
				c-1.6-13.9,7.2-26.2,20.9-29.1c14.4-3.1,28.9,7,31.2,21.5c0.1,0.7,0.2,1.4,0.4,2.1C187.3,84.5,187.3,86,187.3,87.4z M183.3,85.2
				c0-12.2-10-22.2-22.2-22.3c-12.3,0-22.4,10-22.4,22.3c0,12.3,10,22.3,22.3,22.3C173.2,107.5,183.3,97.5,183.3,85.2z"/>
			<path class="st2" d="M159,87.3c-3.4,0-6.6,0-9.9,0c-1.3,0-2.1-0.7-2.2-1.7c-0.2-1.3,0.7-2.3,2.1-2.3c2.9,0,5.9,0,8.8,0
				c0.3,0,0.7,0,1.2,0c0-0.4,0-0.8,0-1.1c0-2.9,0-5.8,0-8.6c0-1.6,0.8-2.4,2-2.4c1.2,0,2,0.9,2,2.4c0,2.9,0,5.8,0,8.6
				c0,0.3,0,0.7,0,1.1c0.6,0,1,0,1.5,0c2.8,0,5.6,0,8.3,0c1.4,0,2.3,0.8,2.3,2c0,1.2-0.9,2.1-2.3,2.1c-3.2,0-6.4,0-9.8,0
				c0,0.4,0,0.7,0,1c0,3,0,6,0,9c0,1.1-0.7,1.9-1.7,2.1c-0.9,0.1-1.8-0.4-2.1-1.2c-0.1-0.4-0.2-0.9-0.2-1.3c0-2.8,0-5.6,0-8.4
				C159,88.1,159,87.7,159,87.3z"/>
		</g>
	</g>
</g>
</svg>
