<?xml version="1.0" encoding="utf-8"?>
<!-- Generator: Adobe Illustrator 27.5.0, SVG Export Plug-In . SVG Version: 6.00 Build 0)  -->
<svg version="1.1" id="Layer_1" width="80" height="60" xmlns="http://www.w3.org/2000/svg" xmlns:xlink="http://www.w3.org/1999/xlink" x="0px" y="0px"
	 viewBox="0 0 200 200" style="enable-background:new 0 0 200 200;" xml:space="preserve">
<style type="text/css">
	.st0{fill:#2D2F7A;}
	.st1{fill:#77BF41;}
</style>
<g id="_x36_KKDQn.tif">
	<g>
		<path class="st0" d="M1.6,125.9c1-1.2,2.1-2.3,3.9-1.7c1.8,0.7,2,2.1,2,3.8c0,20.7,0,41.3,0,62c0,2.7,0,2.7,2.8,2.8
			c37.5,0,75,0,112.5,0c2.7,0,2.5,0,2.8-2.8c0.4-3.9-0.9-6.6-3.5-9.5c-10.1-11-15.7-24.3-18.8-38.7c-3.3-15.3-3.4-30.8-1.1-46.2
			c0.6-3.8,2.2-5.2,6.1-5.2c5,0,10,0,15.1,0c0.7,0,1.4,0,2.3,0c0-0.9,0-1.6,0-2.3c0-26.1,0-52.1,0-78.2c0-2.8,0-2.8-2.8-2.8
			c-9.1,0-18.1,0-27.2,0c-0.5,0-1,0-1.5,0c-1.9-0.1-3.2-1.3-3.1-2.9c0-1.7,1.3-2.8,3.2-2.9c3.5,0,7.1,0,10.6,0c6.2,0,12.5,0,18.7,0
			c5.3,0,8,2.7,8,7.9c0,26.2,0,52.4,0,78.6c0,0.8,0,1.5,0,2.6c0.9,0,1.7,0,2.5,0c18.9,0,37.8,0,56.7,0c4,0,5.6,1.2,6.2,5.1
			c2.7,19,2.1,37.7-3.7,56.1c-6.6,21-19.5,36.9-39.6,46.3c-0.8,0.4-1.6,0.7-2.4,1.1c-1,0-2.1,0-3.1,0c-5.6-3-11.1-5.9-16.5-8.8
			c0.2,6.4-3.3,8.6-9.6,8.6c-37.1-0.2-74.2-0.1-111.3,0c-4.2,0-7.2-1.2-8.9-5.2C1.6,170.9,1.6,148.4,1.6,125.9z M107.9,96.1
			c-2.2,17.3-2,34.1,2.7,50.6c5.8,20.6,17.6,36.4,37.2,45.7c1.2,0.6,2.2,0.6,3.4,0c16.4-7.7,27.7-20.2,34.3-36.9
			c7.2-18.4,8.1-37.5,6-56.9c-0.2-2.1-0.9-2.5-2.9-2.5c-26,0.1-52.1,0.1-78.1,0.1C109.6,96.1,108.8,96.1,107.9,96.1z"/>
		<path class="st0" d="M1.6,6.6c1.4-4,4.3-5.5,8.5-5.5c23.4,0.1,46.8,0,70.2,0c0.6,0,1.2,0,1.7,0c1.7,0.1,2.8,1.3,2.9,2.8
			c0,1.6-1.2,2.8-3,2.9c-0.6,0-1.3,0-1.9,0C56.8,7,33.5,7,10.2,7C7.5,7,7.5,7,7.5,9.8c0,34.2,0,68.4,0,102.7c0,0.6,0,1.2,0,1.7
			c0.1,1.7-0.2,3.1-2,3.8c-1.8,0.6-2.9-0.5-3.8-1.8C1.6,79.7,1.6,43.1,1.6,6.6z"/>
		<path class="st1" d="M75.7,33.5c2.9,0,5.6-0.2,8.3,0c4.4,0.4,7.7,4.1,8,8.3c0.3,4.5-2.4,8.4-6.8,9.5c-1.1,0.3-2.3,0.3-3.4,0.3
			c-1.9,0.1-3.8,0-6.1,0c0,2.5,0.1,4.8,0,7.2c-0.2,3.9-1.9,6.8-5.5,8.4c-3.4,1.5-6.7,1-9.6-1.3c-2.2-1.8-3.3-4.2-3.3-7.1
			c0-2.3,0-4.6,0-7.1c-2.4,0-4.7,0-6.9,0c-5.1,0-9.2-3.7-9.4-8.6c-0.2-5.2,3.3-9.3,8.6-9.7c2.5-0.2,5,0,7.7,0c0-2.4,0-4.5,0-6.6
			c0-5.6,4-9.8,9.2-9.8c5.2,0,9.2,4.2,9.2,9.8C75.7,28.9,75.7,31,75.7,33.5z M77.8,46c1.4,0,2.8,0,4.2,0c2.5,0,4.1-1.3,4.1-3.4
			c0-2.1-1.5-3.3-4.1-3.4c-2.9,0-5.8,0-8.7,0c-2.5,0-3.5-1-3.5-3.5c0-2.9,0-5.8,0-8.7c0-2.5-1.4-4.1-3.4-4.1c-2,0-3.4,1.6-3.4,4.1
			c0,2.8,0,5.7,0,8.5c0,2.8-0.9,3.7-3.7,3.8c-2.8,0-5.5,0-8.3,0c-2.8,0-4.3,1.2-4.3,3.3c0,2.1,1.5,3.4,4.2,3.4c2.9,0,5.8,0,8.7,0
			c2.3,0,3.3,1.1,3.3,3.3c0,3,0,5.9,0,8.9c0,2.6,1.3,4,3.4,4.1c2.1,0,3.4-1.5,3.4-4c0-2.9,0-5.8,0-8.7c0-2.5,1-3.5,3.5-3.5
			C74.9,46,76.4,46,77.8,46z"/>
		<path class="st0" d="M66.5,77.9c14,0,27.9,0,41.9,0c0.7,0,1.4,0,2.1,0c1.7,0.2,2.8,1.3,2.8,2.9c0,1.6-1,2.7-2.8,2.9
			c-0.6,0.1-1.2,0-1.7,0c-28.2,0-56.4,0-84.5,0c-0.2,0-0.4,0-0.6,0c-2.6,0-3.9-1-3.9-2.9c0-2,1.2-2.9,3.9-2.9
			C37.9,77.8,52.2,77.9,66.5,77.9z"/>
		<path class="st0" d="M55.9,142.4c10.5,0,21.1,0,31.6,0c0.6,0,1.3,0,1.9,0c1.7,0.2,2.6,1.1,2.6,2.8c0.1,1.7-0.9,2.6-2.5,3
			c-0.5,0.1-1,0.1-1.5,0.1c-21.4,0-42.8,0-64.3,0c-0.6,0-1.3,0.1-1.9-0.1c-1.5-0.4-2.3-1.4-2.2-3c0.1-1.6,1-2.5,2.6-2.7
			c0.6-0.1,1.3,0,1.9,0C34.8,142.4,45.3,142.4,55.9,142.4z"/>
		<path class="st0" d="M55.7,105.2c-10.5,0-21,0-31.4,0c-0.7,0-1.4,0-2.1-0.1c-1.5-0.2-2.3-1.1-2.4-2.6c-0.1-1.5,0.6-2.5,2-2.9
			c0.7-0.2,1.5-0.2,2.3-0.2c21.2,0,42.4,0,63.6,0c0.4,0,0.9,0,1.3,0c1.9,0.2,3.1,1.4,3,3.1c-0.1,1.6-1.2,2.7-3.1,2.7
			c-3.1,0.1-6.2,0-9.3,0C71.6,105.2,63.7,105.2,55.7,105.2z"/>
		<path class="st0" d="M55.8,120.9c10.7,0,21.3,0,32,0c0.6,0,1.3-0.1,1.9,0.1c1.5,0.4,2.3,1.4,2.2,3c-0.1,1.5-1,2.5-2.5,2.7
			c-0.4,0.1-0.9,0-1.3,0c-21.5,0-42.9,0-64.4,0c-0.4,0-0.9,0-1.3,0c-1.5-0.2-2.5-1.1-2.6-2.6c-0.1-1.7,0.8-2.7,2.3-3.1
			c0.6-0.1,1.3-0.1,1.9-0.1C34.6,120.9,45.2,120.9,55.8,120.9z"/>
		<path class="st0" d="M44.3,174.7c0.4-0.1,0.7-0.1,0.9-0.2c5-2.6,10.4-3,15.9-2.7c2.2,0.1,3.5,1.2,3.5,3c0,1.7-1.3,2.8-3.4,2.9
			c-0.3,0-0.6,0-1,0c-4.6-0.4-8.9,0.5-13.1,2.3c-4.8,2-7.9,0.1-8.9-5.3c-3.9,1.4-7.7,2.9-11.5,4.3c-1.1,0.4-2.1,0.9-3.3,1.2
			c-1.6,0.4-2.8-0.2-3.4-1.7c-0.6-1.5-0.2-3,1.3-3.6c5.2-2.1,10.5-4.2,15.9-6c2.9-1,5.7,0.9,6.6,3.8
			C43.9,173.3,44.1,173.9,44.3,174.7z"/>
		<path class="st0" d="M58.7,164.6c-0.4,0.5-1.1,1.6-2,2c-1.3,0.7-2.9,1-4.4,1.3c-1.8,0.4-3.2-0.5-3.6-2.1c-0.4-1.6,0.4-3,2.1-3.6
			c1.4-0.5,2.8-0.9,4.3-1.2C56.9,160.7,58.6,162,58.7,164.6z"/>
		<path class="st0" d="M181.9,106.2c-6.3,0-12.4,0-18.4,0c-1.4,0-2.7,0.1-4.1,0c-1.6-0.1-2.6-1.1-2.7-2.7c-0.1-1.7,0.9-2.6,2.4-3
			c0.4-0.1,0.8-0.1,1.2-0.1c7.5,0,14.9,0,22.4,0c3,0,4.6,1.4,4.9,4.3c1.3,16.3,0.2,32.3-5.6,47.7c-5.7,15-15.2,26.7-29.4,34.4
			c-2.1,1.1-3.9,1.2-6,0.1c-16.1-8.7-26.1-22.3-31.4-39.6c-4.3-14-5-28.3-3.8-42.8c0.2-2.6,1.8-4.1,4.5-4.1c10.6,0,21.1,0,31.7,0
			c2.1,0,3.3,1.2,3.3,2.9c0,1.8-1.2,2.9-3.4,2.9c-9.3,0-18.7,0-28,0c-0.7,0-1.4,0-2.3,0c-0.1,1.2-0.2,2.2-0.3,3.3
			c-0.8,16.3,1,32.2,8.3,47.1c5.1,10.4,12.7,18.5,22.7,24.3c1.1,0.6,2,0.7,3.1,0c9.4-5.4,16.6-12.9,21.7-22.4
			C181.5,142.2,183,124.6,181.9,106.2z"/>
		<path class="st0" d="M144.6,152.5c6.5-9.6,13-19,19.5-28.4c0.3-0.5,0.6-1,1-1.4c1.1-1.2,2.8-1.5,4-0.6c1.3,1,1.6,2.3,0.8,3.8
			c-0.2,0.5-0.5,0.9-0.8,1.3c-6.8,10-13.6,19.9-20.5,29.9c-2.1,3.1-4.1,3.3-6.8,0.9c-3.8-3.5-7.7-7-11.5-10.6
			c-1.9-1.7-2.2-3.4-0.8-4.8c1.3-1.3,2.9-1.2,4.7,0.4c2.9,2.7,5.9,5.4,8.8,8.1C143.5,151.6,144,152,144.6,152.5z"/>
	</g>
</g>
</svg>
