<?xml version="1.0" encoding="utf-8"?>
<!-- Generator: Adobe Illustrator 27.5.0, SVG Export Plug-In . SVG Version: 6.00 Build 0)  -->
<svg version="1.1" id="Layer_1" width="80" height="60" xmlns="http://www.w3.org/2000/svg" xmlns:xlink="http://www.w3.org/1999/xlink" x="0px" y="0px"
	 viewBox="0 0 200 200" style="enable-background:new 0 0 200 200;" xml:space="preserve">
<style type="text/css">
	.st0{fill:#2D2F7A;}
	.st1{fill:#77BF41;}
</style>
<g id="BKh4O5.tif">
	<g>
		<path class="st0" d="M97.4,2.7c1.9,0,3.8,0,5.7,0c-0.3,0.1-0.6,0.1-0.9,0.2c0.2,0.1,0.3,0.1,0.5,0.1c0.8,0.1,1.6,0.2,2.4,0.4
			c7.8,2.1,13,7,15.6,14.6c0.2,0.6,0.4,0.7,0.9,0.7c3.8,0,7.5,0,11.3,0c3.5,0,6.6,2.8,6.9,6.3c0.1,1.7,0.1,3.3,0.1,5
			c0,0.2,0,0.4,0,0.6c0.2,0,0.3,0,0.4,0c4.5,0,9,0,13.5,0c3.5,0,6.7,1,9.2,3.6c2.8,2.9,4.1,6.4,4.1,10.4c0,27.9,0,55.7,0,83.6
			c0,18.4,0,36.8,0,55.1c0,1.7-0.2,3.3-0.8,4.9c-1.8,5.6-6.7,9.1-12.6,9.1c-35.9,0-71.9,0-107.8,0c-1.2,0-2.4-0.1-3.6-0.4
			c-4.9-1.4-8.1-4.7-9.3-9.7c-0.4-1.5-0.3-3.1-0.3-4.6c0-13.1,0-26.1,0-39.2c0-31.5,0-62.9,0-94.4c0-2.2-0.1-4.4,0.1-6.7
			c0.2-2.6,1.2-4.9,2.9-6.9c1.7-2,3.7-3.6,6.3-4.2c1.3-0.3,2.7-0.5,4.1-0.5c4-0.1,8,0,11.9,0c0.6,0,1.2,0,1.9,0c0-0.2,0-0.4,0-0.5
			c0-1.5,0-2.9,0-4.4c0-0.4,0.1-0.9,0.2-1.3c0.8-3.4,3.6-5.6,7.1-5.6c3.8,0,7.5,0,11.3,0c0.3,0,0.5-0.1,0.6-0.4
			c1.2-3.7,3.1-7,6.1-9.7c3.2-2.9,6.9-4.8,11.1-5.5C97,3,97.5,3,98.1,3C97.8,2.9,97.6,2.8,97.4,2.7z M60.1,42.3
			c-0.2,0-0.4-0.1-0.6-0.1c-4.6,0-9.1,0-13.7,0c-0.4,0-0.8,0.2-0.9,0.5c-0.2,0.5-0.4,1.1-0.4,1.6c0,1.9,0,3.8,0,5.7
			c0,15.7,0,31.3,0,47c0,15.7,0,31.4,0,47.1c0,12.7,0,25.4,0,38.1c0,0.5,0,1.1,0,1.6c0.1,1.1,0.6,1.6,1.5,1.6c35.7,0,71.4,0,107.1,0
			c0.4,0,0.8,0,1.1,0c0.5,0,0.9-0.2,1-0.7c0.1-0.3,0.2-0.7,0.3-1c0-0.5,0-1,0-1.5c0-45.9,0-91.8,0-137.6c0-0.4,0-0.8-0.1-1.2
			c-0.1-0.9-0.6-1.3-1.5-1.3c-4.5,0-8.9,0-13.4,0c-0.2,0-0.3,0-0.5,0c0,0.2,0,0.4,0,0.6c0,2.5,0,4.9,0,7.4c-0.1,2.7-1.2,4.9-3.6,6.3
			c-1.4,0.8-2.8,1-4.4,1c-21.3,0-42.7,0-64,0c-0.8,0-1.6-0.1-2.4-0.2c-3.2-0.7-5.5-3.7-5.6-7c0-2.5,0-5,0-7.5
			C60.1,42.7,60.1,42.6,60.1,42.3z"/>
		<path class="st0" d="M32.7,42.5c0.1,0.7,0.2,1.5,0.2,2.2c0,17.2,0,34.3,0,51.5c0,15.7,0,31.3,0,47c0,12.8,0,25.5,0,38.3
			c0,1.3,0,2.5,0,3.8c0,0.2-0.1,0.3-0.1,0.5C32.7,137.9,32.7,90.2,32.7,42.5z"/>
		<path class="st0" d="M140,134.9c0,3.9,0,7.8,0,11.7c-26.6,0-53.2,0-79.9,0c0-3.9,0-7.8,0-11.7C86.7,134.9,113.3,134.9,140,134.9z"
			/>
		<path class="st0" d="M140,155.9c0,0.2,0,0.4,0,0.5c0,3.5,0,7,0,10.5c0,0.7,0,0.7-0.7,0.7c-6.2,0-12.5,0-18.7,0
			c-19.5,0-39,0-58.5,0c-0.6,0-1.3,0-2,0c0-3.9,0-7.8,0-11.7C86.7,155.9,113.3,155.9,140,155.9z"/>
		<path class="st0" d="M60.1,125.7c0-0.2,0-0.4,0-0.6c0-3.5,0-7,0-10.5c0-0.6,0-0.6,0.6-0.6c6.5,0,13.1,0,19.6,0c19.5,0,39,0,58.5,0
			c1.2,0,1.2,0,1.2,1.2c0,3.3,0,6.5,0,9.8c0,0.8,0.1,0.8-0.8,0.8c-11.6,0-23.3,0-34.9,0c-14.6,0-29.3,0-43.9,0
			C60.4,125.7,60.3,125.7,60.1,125.7z"/>
		<path class="st1" d="M71.9,94.3c-4,0-7.9,0-11.8,0c0-0.2,0-0.3,0-0.5c0-3.6,0-7.1,0-10.7c0-0.4,0.1-0.6,0.5-0.5
			c3.6,0,7.1,0,10.7,0c0.6,0,0.6,0,0.6-0.6c0-3.6,0-7.2,0-10.8c0-0.3,0.1-0.4,0.4-0.4c3.6,0,7.2,0,10.8,0c0.4,0,0.5,0.1,0.5,0.5
			c0,3.7,0,7.4,0,11.2c0,0,0,0.1,0,0.2c0.1,0,0.3,0,0.4,0c3.6,0,7.2,0,10.9,0c0.4,0,0.5,0.1,0.5,0.5c0,3.6,0,7.2,0,10.7
			c0,0.4-0.1,0.5-0.5,0.5c-3.6,0-7.3,0-10.9,0c-0.1,0-0.3,0-0.5,0c0,0.4,0,0.7,0,1.1c0,3.4,0,6.7,0.1,10.1c0,0.7,0,0.7-0.6,0.7
			c-3.5,0-7,0-10.5,0c-0.5,0-0.6-0.2-0.6-0.6c0-3.6,0-7.2,0-10.8C72,94.6,72,94.4,71.9,94.3z"/>
		<path class="st0" d="M140,93c0,3.9,0,7.8,0,11.7c-10.8,0-21.6,0-32.5,0c0-3.9,0-7.8,0-11.7C118.4,93,129.2,93,140,93z"/>
		<path class="st0" d="M107.5,72.1c10.8,0,21.6,0,32.5,0c0,0.2,0,0.4,0,0.5c0,3.5,0,7,0,10.5c0,0.5-0.1,0.6-0.6,0.6
			c-9.6,0-19.1,0-28.7,0c-0.9,0-1.8,0-2.7,0c-0.3,0-0.4-0.1-0.4-0.4c0-3.5,0-7.1,0-10.6C107.5,72.6,107.5,72.4,107.5,72.1z"/>
	</g>
</g>
</svg>
